<svg width="146" height="146" viewBox="0 0 146 146" fill="none" xmlns="http://www.w3.org/2000/svg">
<path d="M73 143C111.66 143 143 111.66 143 73C143 34.3401 111.66 3 73 3C34.3401 3 3 34.3401 3 73C3 111.66 34.3401 143 73 143Z" fill="#1A1C21" stroke="#707070" stroke-width="5"/>
<path d="M117.115 88.48C113.515 83.8 109.215 79.02 104.085 74.36C103.595 73.92 103.595 73.15 104.085 72.7C109.215 68.05 113.515 63.27 117.115 58.58C117.565 57.99 118.435 57.99 118.885 58.58C122.485 63.26 126.785 68.04 131.915 72.7C132.405 73.14 132.405 73.91 131.915 74.36C126.785 79.01 122.485 83.79 118.885 88.48C118.435 89.07 117.565 89.07 117.115 88.48Z" fill="#1A1C21" stroke="#707070" stroke-width="5" stroke-linejoin="round"/>
<path d="M87.9953 78.21C81.7553 83.93 78.8953 89.18 78.0053 91.07C77.8053 91.5 77.9053 92.01 78.2553 92.34C87.8153 101.51 92.2053 111.3 93.1153 114.17C93.2653 114.63 93.6953 114.94 94.1753 114.94H111.605C112.375 114.94 112.915 114.19 112.665 113.46C110.875 108.18 103.205 90.38 89.4953 78.2C89.0653 77.82 88.4053 77.83 87.9853 78.21H87.9953Z" fill="#1A1C21" stroke="#707070" stroke-width="5" stroke-linejoin="round"/>
<path d="M87.9953 67.73C81.7553 62.01 78.8953 56.76 78.0053 54.87C77.8053 54.44 77.9053 53.93 78.2553 53.6C87.8153 44.43 92.2053 34.64 93.1153 31.77C93.2653 31.31 93.6953 31 94.1753 31H111.605C112.375 31 112.915 31.75 112.665 32.48C110.875 37.76 103.205 55.56 89.4953 67.74C89.0653 68.12 88.4053 68.11 87.9853 67.73H87.9953Z" fill="#1A1C21" stroke="#707070" stroke-width="5" stroke-linejoin="round"/>
<path d="M72.6253 71.98C52.5553 59.39 45.9153 36.54 44.7453 31.86C44.6153 31.36 44.1753 31.01 43.6553 31.01H28.1253C27.3953 31.01 26.8553 31.7 27.0353 32.41C28.5553 38.26 35.2853 60.94 50.9453 72.01C51.5953 72.47 51.5953 73.41 50.9453 73.87C35.2753 84.94 28.5453 107.69 27.0353 113.55C26.8553 114.26 27.3853 114.95 28.1253 114.95H43.6553C44.1753 114.95 44.6153 114.6 44.7453 114.1C45.9153 109.41 52.5553 86.5 72.6353 73.9C73.3453 73.45 73.3453 72.43 72.6353 71.99L72.6253 71.98Z" fill="#1A1C21" stroke="#707070" stroke-width="5" stroke-linejoin="round"/>
</svg>
