<?xml version="1.0" encoding="UTF-8"?>
<svg id="Layer_1" data-name="Layer 1" xmlns="http://www.w3.org/2000/svg" viewBox="0 0 540.92 184.11">
  <defs>
    <style>
      .cls-1 {
        fill: #010101;
      }
    </style>
  </defs>
  <path class="cls-1" d="M68.04,97.25h33.05c.75,0,1.36-.61,1.36-1.36v-9.32c0-.75-.61-1.36-1.36-1.36h-33.05c-.75,0-1.36-.61-1.36-1.36v-15.54c0-.75.61-1.36,1.36-1.36h35.42c.75,0,1.36-.61,1.36-1.36v-9.52c0-.75-.61-1.36-1.36-1.36h-51.29c-.75,0-1.36.61-1.36,1.36v71.95c0,.75.61,1.36,1.36,1.36h52.53c.75,0,1.36-.61,1.36-1.36v-9.52c0-.75-.61-1.36-1.36-1.36h-36.65c-.75,0-1.36-.61-1.36-1.36v-17.2c0-.75.61-1.36,1.36-1.36Z"/>
  <path class="cls-1" d="M195.31,91.86c0-15.35-9.02-38.16-38.13-38.16s-37.92,21.54-37.92,38.06c0,31.42,25.21,38.68,38.03,38.68,3.64,0,32.89-.9,40.51-1.02.74-.01,1.33-.62,1.33-1.36v-9.47c0-.78-.65-1.39-1.42-1.35l-13.64.68c.52-.41,11.25-7.29,11.25-26.05ZM157.18,118.4c-16.98,0-21.85-16.14-21.85-26.76,0-7.7,3.41-25.3,21.85-25.3s22.05,17.55,22.05,25.3c0,11.08-4.95,26.76-22.05,26.76Z"/>
  <path class="cls-1" d="M260.35,99.01c0,6.43-1.54,18.77-15.87,18.77s-15.87-12.37-15.87-18.87v-42.82c0-.75-.61-1.36-1.36-1.36h-13.16c-.75,0-1.36.61-1.36,1.36v40.02c0,11.2,2.29,34.33,31.64,34.33s31.84-23.06,31.84-34.12v-40.23c0-.75-.61-1.36-1.36-1.36h-13.16c-.75,0-1.36.61-1.36,1.36v42.92Z"/>
  <rect class="cls-1" x="294" y="54.73" width="15.87" height="74.66" rx="1.36" ry="1.36"/>
  <path class="cls-1" d="M321.81,56.09v9.52c0,.75.61,1.36,1.36,1.36h21.51c.75,0,1.36.61,1.36,1.36v59.72c0,.75.61,1.36,1.36,1.36h13.16c.75,0,1.36-.61,1.36-1.36v-59.72c0-.75.61-1.36,1.36-1.36h21.51c.75,0,1.36-.61,1.36-1.36v-9.52c0-.75-.61-1.36-1.36-1.36h-61.6c-.75,0-1.36.61-1.36,1.36Z"/>
  <g>
    <path class="cls-1" d="M476.62,105.85c-3.2-4.17-7.03-8.42-11.59-12.56-.44-.4-.44-1.08,0-1.47,4.56-4.14,8.39-8.39,11.59-12.56.4-.52,1.17-.52,1.57,0,3.2,4.17,7.03,8.42,11.59,12.56.44.4.44,1.08,0,1.47-4.56,4.14-8.39,8.39-11.59,12.56-.4.52-1.17.52-1.57,0Z"/>
    <path class="cls-1" d="M450.72,96.71c-5.55,5.09-8.1,9.76-8.88,11.44-.18.39-.09.84.22,1.13,8.5,8.16,12.41,16.87,13.22,19.42.13.41.51.68.94.68h15.51c.68,0,1.16-.67.95-1.32-1.59-4.7-8.41-20.53-20.61-31.36-.38-.34-.97-.33-1.35.01Z"/>
    <path class="cls-1" d="M450.72,87.4c-5.55-5.09-8.1-9.76-8.88-11.44-.18-.39-.09-.84.22-1.13,8.5-8.16,12.41-16.87,13.22-19.42.13-.41.51-.68.94-.68h15.51c.68,0,1.16.67.95,1.32-1.59,4.7-8.41,20.53-20.61,31.36-.38.34-.97.33-1.35-.01Z"/>
    <path class="cls-1" d="M437.05,91.17c-17.85-11.2-23.75-31.52-24.8-35.68-.11-.44-.51-.76-.97-.76h-13.82c-.65,0-1.13.61-.97,1.24,1.35,5.2,7.34,25.38,21.27,35.22.58.41.58,1.24,0,1.65-13.94,9.85-19.92,30.08-21.27,35.29-.16.63.31,1.24.97,1.24h13.81c.46,0,.86-.31.97-.76,1.04-4.17,6.95-24.55,24.8-35.75.63-.4.63-1.3,0-1.7Z"/>
  </g>
</svg>