<svg width="42" height="75" viewBox="0 0 42 75" fill="none" xmlns="http://www.w3.org/2000/svg">
<g clip-path="url(#clip0_0_1)">
<path d="M40.538 36.6158C22.7115 25.3617 16.8193 4.94373 15.7707 0.763668C15.6609 0.321545 15.2614 0 14.802 0H1.00012C0.350982 0 -0.128388 0.612944 0.0314016 1.24598C1.37962 6.47106 7.36176 26.7484 21.2735 36.6359C21.8527 37.0478 21.8527 37.8818 21.2735 38.2938C7.35178 48.1913 1.37962 68.5189 0.0314016 73.754C-0.128388 74.3871 0.340995 75 1.00012 75H14.7919C15.2513 75 15.6508 74.6885 15.7606 74.2363C16.7993 70.0462 22.7016 49.5679 40.5281 38.3139C41.1573 37.912 41.1573 37.0076 40.5281 36.6057L40.538 36.6158Z" fill="#010101"/>
</g>
<defs>
<clipPath id="clip0_0_1">
<rect width="42" height="75" fill="white"/>
</clipPath>
</defs>
</svg>
