<svg width="440" height="77" viewBox="0 0 440 77" fill="none" xmlns="http://www.w3.org/2000/svg">
<path d="M17.23 43.55H50.28C51.03 43.55 51.64 42.94 51.64 42.19V32.87C51.64 32.12 51.03 31.51 50.28 31.51H17.23C16.48 31.51 15.87 30.9 15.87 30.15V14.61C15.87 13.86 16.48 13.25 17.23 13.25H52.65C53.4 13.25 54.01 12.64 54.01 11.89V2.37C54.01 1.62 53.4 1.01 52.65 1.01H1.36C0.609997 1.01 0 1.62 0 2.37V74.32C0 75.07 0.609997 75.68 1.36 75.68H53.89C54.64 75.68 55.25 75.07 55.25 74.32V64.8C55.25 64.05 54.64 63.44 53.89 63.44H17.24C16.49 63.44 15.88 62.83 15.88 62.08V44.88C15.88 44.13 16.49 43.52 17.24 43.52L17.23 43.55Z" fill="#1A1C21"/>
<path d="M144.5 38.16C144.5 22.81 135.48 0 106.37 0C77.26 0 68.45 21.54 68.45 38.06C68.45 69.48 93.66 76.74 106.48 76.74C110.12 76.74 139.37 75.84 146.99 75.72C147.73 75.71 148.32 75.1 148.32 74.36V64.89C148.32 64.11 147.67 63.5 146.9 63.54L133.26 64.22C133.78 63.81 144.51 56.93 144.51 38.17L144.5 38.16ZM106.37 64.7C89.39 64.7 84.52 48.56 84.52 37.94C84.52 30.24 87.93 12.64 106.37 12.64C124.81 12.64 128.42 30.19 128.42 37.94C128.42 49.02 123.47 64.7 106.37 64.7Z" fill="#1A1C21"/>
<path d="M209.54 45.31C209.54 51.74 208 64.08 193.67 64.08C179.34 64.08 177.8 51.71 177.8 45.21V2.39C177.8 1.64 177.19 1.03 176.44 1.03H163.28C162.53 1.03 161.92 1.64 161.92 2.39V42.41C161.92 53.61 164.21 76.74 193.56 76.74C222.91 76.74 225.4 53.68 225.4 42.62V2.39C225.4 1.64 224.79 1.03 224.04 1.03H210.88C210.13 1.03 209.52 1.64 209.52 2.39V45.31H209.54Z" fill="#1A1C21"/>
<path d="M257.7 1.03H244.55C243.799 1.03 243.19 1.63889 243.19 2.39V74.33C243.19 75.0811 243.799 75.69 244.55 75.69H257.7C258.451 75.69 259.06 75.0811 259.06 74.33V2.39C259.06 1.63889 258.451 1.03 257.7 1.03Z" fill="#1A1C21"/>
<path d="M271 2.39V11.91C271 12.66 271.61 13.27 272.36 13.27H293.87C294.62 13.27 295.23 13.88 295.23 14.63V74.35C295.23 75.1 295.84 75.71 296.59 75.71H309.75C310.5 75.71 311.11 75.1 311.11 74.35V14.63C311.11 13.88 311.72 13.27 312.47 13.27H333.98C334.73 13.27 335.34 12.66 335.34 11.91V2.39C335.34 1.64 334.73 1.03 333.98 1.03H272.38C271.63 1.03 271.02 1.64 271.02 2.39H271Z" fill="#1A1C21"/>
<path d="M425.81 52.16C422.61 47.99 418.78 43.74 414.22 39.6C413.78 39.2 413.78 38.52 414.22 38.13C418.78 33.99 422.61 29.74 425.81 25.57C426.21 25.05 426.98 25.05 427.38 25.57C430.58 29.74 434.41 33.99 438.97 38.13C439.41 38.53 439.41 39.21 438.97 39.6C434.41 43.74 430.58 47.99 427.38 52.16C426.98 52.68 426.21 52.68 425.81 52.16Z" fill="#1A1C21"/>
<path d="M399.91 43.01C394.36 48.1 391.81 52.77 391.03 54.45C390.85 54.84 390.94 55.29 391.25 55.58C399.75 63.74 403.66 72.45 404.47 75C404.6 75.41 404.98 75.68 405.41 75.68H420.92C421.6 75.68 422.08 75.01 421.87 74.36C420.28 69.66 413.46 53.83 401.26 43C400.88 42.66 400.29 42.67 399.91 43.01Z" fill="#1A1C21"/>
<path d="M399.91 33.7C394.36 28.61 391.81 23.94 391.03 22.26C390.85 21.87 390.94 21.42 391.25 21.13C399.75 12.97 403.66 4.26 404.47 1.71C404.6 1.3 404.98 1.03 405.41 1.03H420.92C421.6 1.03 422.08 1.7 421.87 2.35C420.28 7.05 413.46 22.88 401.26 33.71C400.88 34.05 400.29 34.04 399.91 33.7Z" fill="#1A1C21"/>
<path d="M386.24 37.47C368.39 26.27 362.49 5.95 361.44 1.79C361.33 1.35 360.93 1.03 360.47 1.03H346.65C346 1.03 345.52 1.64 345.68 2.27C347.03 7.47 353.02 27.65 366.95 37.49C367.53 37.9 367.53 38.73 366.95 39.14C353.01 48.99 347.03 69.22 345.68 74.43C345.52 75.06 345.99 75.67 346.65 75.67H360.46C360.92 75.67 361.32 75.36 361.43 74.91C362.47 70.74 368.38 50.36 386.23 39.16C386.86 38.76 386.86 37.86 386.23 37.46L386.24 37.47Z" fill="#1A1C21"/>
</svg>
