<?xml version="1.0" encoding="UTF-8"?>
<svg id="Layer_1" data-name="Layer 1" xmlns="http://www.w3.org/2000/svg" viewBox="0 0 162.41 145.46">
  <defs>
    <style>
      .cls-1 {
        fill: #010101;
      }
    </style>
  </defs>
  <path class="cls-1" d="M118.68,88.24c-3.6-4.68-7.9-9.46-13.03-14.12-.49-.44-.49-1.21,0-1.66,5.13-4.65,9.43-9.43,13.03-14.12.45-.59,1.32-.59,1.77,0,3.6,4.68,7.9,9.46,13.03,14.12.49.44.49,1.21,0,1.66-5.13,4.65-9.43,9.43-13.03,14.12-.45.59-1.32.59-1.77,0Z"/>
  <path class="cls-1" d="M89.56,77.97c-6.24,5.72-9.1,10.97-9.99,12.86-.2.43-.1.94.25,1.27,9.56,9.17,13.95,18.96,14.86,21.83.15.46.58.77,1.06.77h17.43c.77,0,1.31-.75,1.06-1.48-1.79-5.28-9.46-23.08-23.17-35.26-.43-.38-1.09-.37-1.51.01Z"/>
  <path class="cls-1" d="M89.56,67.49c-6.24-5.72-9.1-10.97-9.99-12.86-.2-.43-.1-.94.25-1.27,9.56-9.17,13.95-18.96,14.86-21.83.15-.46.58-.77,1.06-.77h17.43c.77,0,1.31.75,1.06,1.48-1.79,5.28-9.46,23.08-23.17,35.26-.43.38-1.09.37-1.51-.01Z"/>
  <path class="cls-1" d="M74.19,71.74c-20.07-12.59-26.71-35.44-27.88-40.12-.13-.5-.57-.85-1.09-.85h-15.53c-.73,0-1.27.69-1.09,1.4,1.52,5.85,8.25,28.53,23.91,39.6.65.46.65,1.4,0,1.86-15.67,11.07-22.4,33.82-23.91,39.68-.18.71.35,1.4,1.09,1.4h15.53c.52,0,.96-.35,1.09-.85,1.17-4.69,7.81-27.6,27.89-40.2.71-.45.71-1.47,0-1.91Z"/>
</svg>